<svg width="65" height="46" viewBox="0 0 65 46" fill="none" xmlns="http://www.w3.org/2000/svg">
  <!-- Bar 3 -->
  <rect x="0.789062" y="45.5704" width="45.5705" height="5.33287" rx="2.66644" transform="rotate(-90 0.789062 45.5704)" fill="#E9EDF7"/>
  <rect x="0.789062" y="45.5704" width="37.508" height="5.33288" rx="2.66644" transform="rotate(-90 0.789062 45.5704)" fill="#4318FF"/>

  <!-- Bar 4 -->
  <rect x="14.307846" y="45.5704" width="45.5705" height="5.33287" rx="2.66644" transform="rotate(-90 14.307846 45.5704)" fill="#E9EDF7"/>
  <rect x="14.307861" y="45.5704" width="23.4863" height="5.33287" rx="2.66643" transform="rotate(-90 14.307861 45.5704)" fill="#4318FF"/>

  <!-- Bar 5 -->
  <rect x="27.825867" y="45.5704" width="45.5705" height="5.33286" rx="2.66643" transform="rotate(-90 27.825867 45.5704)" fill="#E9EDF7"/>
  <rect x="27.825867" y="45.5704" width="31.5488" height="5.33287" rx="2.66643" transform="rotate(-90 27.825867 45.5704)" fill="#4318FF"/>

  <!-- Bar 6 -->
  <rect x="41.343933" y="45.5704" width="45.5705" height="5.33281" rx="2.66641" transform="rotate(-90 41.343933 45.5704)" fill="#E9EDF7"/>
  <rect x="41.343933" y="45.5704" width="41.364" height="5.33287" rx="2.66643" transform="rotate(-90 41.343933 45.5704)" fill="#4318FF"/>

  <!-- Bar 7 -->
  <rect x="54.862671" y="45.5704" width="45.5705" height="5.33286" rx="2.66643" transform="rotate(-90 54.862671 45.5704)" fill="#E9EDF7"/>
  <rect x="54.862671" y="45.5704" width="10.8668" height="5.33286" rx="2.66643" transform="rotate(-90 54.862671 45.5704)" fill="#4318FF"/>
</svg> 