<svg width="25" height="24" viewBox="0 0 25 24" fill="none" xmlns="http://www.w3.org/2000/svg">
<g clip-path="url(#clip0_447_29)">
<path d="M7.18906 9.2H7.38906C8.15906 9.2 8.78906 9.83 8.78906 10.6V17.6C8.78906 18.37 8.15906 19 7.38906 19H7.18906C6.41906 19 5.78906 18.37 5.78906 17.6V10.6C5.78906 9.83 6.41906 9.2 7.18906 9.2ZM12.7891 5C13.5591 5 14.1891 5.63 14.1891 6.4V17.6C14.1891 18.37 13.5591 19 12.7891 19C12.0191 19 11.3891 18.37 11.3891 17.6V6.4C11.3891 5.63 12.0191 5 12.7891 5ZM18.3891 13C19.1591 13 19.7891 13.63 19.7891 14.4V17.6C19.7891 18.37 19.1591 19 18.3891 19C17.6191 19 16.9891 18.37 16.9891 17.6V14.4C16.9891 13.63 17.6191 13 18.3891 13Z" fill="#4318FF"/>
</g>
<defs>
<clipPath id="clip0_447_29">
<rect width="24" height="24" fill="white" transform="translate(0.789062)"/>
</clipPath>
</defs>
</svg>
