<svg width="29" height="28" viewBox="0 0 29 28" fill="none" xmlns="http://www.w3.org/2000/svg">
<g clip-path="url(#clip0_473_80)">
<path fill-rule="evenodd" clip-rule="evenodd" d="M20.2374 15.3183C21.8357 16.4033 22.9557 17.8733 22.9557 19.8333V23.3333H26.4557C27.0974 23.3333 27.6224 22.8083 27.6224 22.1667V19.8333C27.6224 17.29 23.4574 15.785 20.2374 15.3183Z" fill="white"/>
<path d="M11.2891 14C13.8664 14 15.9557 11.9107 15.9557 9.33332C15.9557 6.75599 13.8664 4.66666 11.2891 4.66666C8.71173 4.66666 6.62239 6.75599 6.62239 9.33332C6.62239 11.9107 8.71173 14 11.2891 14Z" fill="white"/>
<path fill-rule="evenodd" clip-rule="evenodd" d="M18.2891 14C20.8674 14 22.9557 11.9117 22.9557 9.33332C22.9557 6.75499 20.8674 4.66666 18.2891 4.66666C17.7407 4.66666 17.2274 4.78332 16.7374 4.94666C17.7057 6.14832 18.2891 7.67666 18.2891 9.33332C18.2891 10.99 17.7057 12.5183 16.7374 13.72C17.2274 13.8833 17.7407 14 18.2891 14Z" fill="white"/>
<path fill-rule="evenodd" clip-rule="evenodd" d="M11.2891 15.1667C8.17406 15.1667 1.95573 16.73 1.95573 19.8333V22.1667C1.95573 22.8083 2.48073 23.3333 3.12239 23.3333H19.4557C20.0974 23.3333 20.6224 22.8083 20.6224 22.1667V19.8333C20.6224 16.73 14.4041 15.1667 11.2891 15.1667Z" fill="white"/>
</g>
<defs>
<clipPath id="clip0_473_80">
<rect width="28" height="28" fill="white" transform="translate(0.789062)"/>
</clipPath>
</defs>
</svg>
