<svg width="11" height="15" viewBox="0 0 11 15" fill="none" xmlns="http://www.w3.org/2000/svg">
<path d="M5.78906 0.429688C2.96971 0.429688 0.689453 2.70994 0.689453 5.5293C0.689453 9.354 5.78906 15 5.78906 15C5.78906 15 10.8887 9.354 10.8887 5.5293C10.8887 2.70994 8.60842 0.429688 5.78906 0.429688ZM2.14648 5.5293C2.14648 3.51859 3.77836 1.88672 5.78906 1.88672C7.79977 1.88672 9.43164 3.51859 9.43164 5.5293C9.43164 7.62742 7.33352 10.7673 5.78906 12.727C4.27375 10.7819 2.14648 7.60557 2.14648 5.5293Z" fill="#A3AED0"/>
<path d="M5.78931 7.34999C6.79518 7.34999 7.6106 6.53458 7.6106 5.52871C7.6106 4.52284 6.79518 3.70742 5.78931 3.70742C4.78344 3.70742 3.96802 4.52284 3.96802 5.52871C3.96802 6.53458 4.78344 7.34999 5.78931 7.34999Z" fill="#A3AED0"/>
</svg>
